#!OML:ASF E:\I on waltz\AllaLogoMonkeySwing\Project 1\Capture day 1\Session 1\Subject1.ASF
:FULLY-SPECIFIED
:DEGREES
1091
root -0.046156 17.6005 -23.2778 7.81494 1.78413 1.45627
lowerback 13.5271 1.16476 -5.58084
upperback 3.76582 0.763196 -0.515816
thorax -3.67014 0.400808 2.48366
lowerneck -5.78034 7.85327 2.64315
upperneck 37.4575 12.9768 -4.76998
head 14.3691 5.4254 -0.628935
rclavicle 5.76476e-015 -7.95139e-016
rhumerus -36.1601 -6.00092 -76.4092
rradius 48.7138
rwrist -3.5732
rhand -6.16448 -395.904
rfingers 7.12502
rthumb 19.6742 -64.9288
lclavicle 5.76476e-015 -7.95139e-016
lhumerus -39.5487 17.9963 71.9039
lradius 58.8689
lwrist 5.04872
lhand -11.2869 -12.2005
lfingers 7.12502
lthumb 14.7441 17.2551
rfemur -20.8149 -5.76917 17.6355
rtibia 52.3512
rfoot -16.406 -5.23691
rtoes 12.7293
lfemur -11.9349 -1.36271 -22.2911
ltibia 27.531
lfoot -22.487 1.92481
ltoes -27.7172
1092
root -0.0563389 17.592 -23.4028 8.16817 1.821 1.65357
lowerback 13.1938 1.27163 -5.53999
upperback 3.57713 0.920707 -0.617524
thorax -3.69888 0.482661 2.32982
lowerneck -5.59847 7.60764 2.59578
upperneck 37.1887 12.5357 -4.60388
head 14.1536 5.26841 -0.629725
rclavicle -5.26779e-015 -3.97569e-015
rhumerus -35.7296 -6.77985 -76.1031
rradius 48.9643
rwrist -3.60948
rhand -6.16393 -396.068
rfingers 7.12502
rthumb 19.6748 -65.0919
lclavicle -5.26779e-015 -3.97569e-015
lhumerus -39.6997 18.4715 72.0834
lradius 57.791
lwrist 4.02924
lhand -10.7812 -12.1727
lfingers 7.12502
lthumb 15.2313 17.2466
rfemur -18.6185 -5.83002 17.9042
rtibia 49.1826
rfoot -18.3606 -4.49841
rtoes 10.4575
lfemur -13.1741 -0.915339 -22.3799
ltibia 28.2753
lfoot -22.8185 1.10092
ltoes -27.6986
1093
root -0.0616905 17.5914 -23.5205 8.31387 1.88502 1.43361
lowerback 13.051 1.35315 -4.89122
upperback 3.43439 1.11565 -0.663539
thorax -3.77661 0.579584 1.88496
lowerneck -5.50165 7.34354 2.42915
upperneck 36.8755 12.0237 -4.25699
head 13.9102 5.08428 -0.544289
rclavicle -6.16232e-015 1.43125e-014
rhumerus -35.5085 -7.66408 -75.9304
rradius 49.1431
rwrist -3.18945
rhand -6.79678 -396.013
rfingers 7.12502
rthumb 19.0663 -65.0983
lclavicle -6.16232e-015 1.43125e-014
lhumerus -39.9197 18.9962 72.178
lradius 56.7526
lwrist 3.06298
lhand -10.344 -11.9344
lfingers 7.12502
lthumb 15.6523 17.4525
rfemur -16.3438 -6.15576 18.646
rtibia 45.3731
rfoot -20.4871 -5.50718
rtoes 6.08734
lfemur -14.2146 -0.666537 -22.0732
ltibia 29.144
lfoot -23.0868 0.76197
ltoes -28.1805
1094
root -0.0626841 17.5814 -23.639 8.2406 1.94302 0.954451
lowerback 13.0947 1.40029 -3.92066
upperback 3.38835 1.30428 -0.603783
thorax -3.84481 0.668697 1.36904
lowerneck -5.52084 7.14171 2.19421
upperneck 36.4823 11.6293 -3.95911
head 13.6678 4.93363 -0.445234
rclavicle -2.28602e-015 2.78299e-015
rhumerus -35.2912 -8.41843 -75.7174
rradius 49.4011
rwrist -3.31013
rhand -7.46411 -396.201
rfingers 7.12502
rthumb 18.4244 -65.3483
lclavicle -2.28602e-015 2.78299e-015
lhumerus -40.2237 19.7567 72.3139
lradius 55.7467
lwrist 2.30106
lhand -9.81121 -11.7186
lfingers 7.12502
lthumb 16.1654 17.6273
rfemur -14.267 -5.95088 19.5062
rtibia 41.254
rfoot -23.0431 -6.41903
rtoes 11.0162
lfemur -14.998 -0.697848 -21.5358
ltibia 29.9498
lfoot -23.1924 0.827083
ltoes -28.0588
1095
root -0.060554 17.569 -23.7625 8.19047 1.90232 0.405986
lowerback 13.2183 1.47115 -2.88678
upperback 3.31582 1.5337 -0.473378
thorax -3.97959 0.777409 0.881962
lowerneck -5.5309 6.98419 1.97199
upperneck 35.9249 11.3357 -3.80557
head 13.3735 4.81595 -0.393028
rclavicle -8.94531e-015 0
rhumerus -34.9223 -8.78897 -75.4687
rradius 49.3826
rwrist -3.59212
rhand -7.90873 -396.445
rfingers 7.12502
rthumb 17.9967 -65.6325
lclavicle -8.94531e-015 0
lhumerus -40.527 20.5525 72.5453
lradius 54.7208
lwrist 1.82571
lhand -9.41138 -11.535
lfingers 7.12502
lthumb 16.5504 17.7792
rfemur -12.6343 -5.69667 20.4652
rtibia 37.2337
rfoot -24.3139 -8.29576
rtoes 10.4197
lfemur -15.7956 -0.839493 -20.9457
ltibia 30.6792
lfoot -23.197 1.01951
ltoes -27.7164
